<mxfile host="app.diagrams.net" agent="Mozilla/5.0 (Macintosh; Intel Mac OS X 10_15_7) AppleWebKit/537.36 (KHTML, like Gecko) Chrome/131.0.0.0 Safari/537.36" version="25.0.3">
  <diagram name="Page-1" id="03018318-947c-dd8e-b7a3-06fadd420f32">
    <mxGraphModel dx="1194" dy="700" grid="1" gridSize="10" guides="1" tooltips="1" connect="1" arrows="1" fold="1" page="1" pageScale="1" pageWidth="1100" pageHeight="850" background="#000000" math="0" shadow="0">
      <root>
        <mxCell id="0" />
        <mxCell id="1" parent="0" />
        <mxCell id="ZpvsaGd3pKOPAMB-jsLZ-1" value="Search" style="strokeWidth=1;shadow=0;dashed=0;align=center;html=1;shape=mxgraph.mockup.forms.searchBox;strokeColor=#005700;mainText=;strokeColor2=#008cff;fontColor=#ffffff;fontSize=17;align=left;spacingLeft=3;rounded=0;labelBackgroundColor=none;comic=1;fillColor=#008a00;" vertex="1" parent="1">
          <mxGeometry x="380" y="25" width="220" height="30" as="geometry" />
        </mxCell>
        <mxCell id="ZpvsaGd3pKOPAMB-jsLZ-2" value="Topic 1" style="text;html=1;points=[];align=left;verticalAlign=top;spacingTop=-4;fontSize=14;fontFamily=Verdana;fillColor=#008a00;fontColor=#ffffff;strokeColor=#005700;" vertex="1" parent="1">
          <mxGeometry x="750" y="30" width="60" height="20" as="geometry" />
        </mxCell>
        <mxCell id="ZpvsaGd3pKOPAMB-jsLZ-3" value="Topic 2" style="text;html=1;points=[];align=left;verticalAlign=top;spacingTop=-4;fontSize=14;fontFamily=Verdana;fillColor=#008a00;fontColor=#ffffff;strokeColor=#005700;" vertex="1" parent="1">
          <mxGeometry x="840" y="30" width="60" height="20" as="geometry" />
        </mxCell>
        <mxCell id="ZpvsaGd3pKOPAMB-jsLZ-4" value="Topic 3" style="text;html=1;points=[];align=left;verticalAlign=top;spacingTop=-4;fontSize=14;fontFamily=Verdana;fillColor=#008a00;fontColor=#ffffff;strokeColor=#005700;" vertex="1" parent="1">
          <mxGeometry x="910" y="30" width="60" height="20" as="geometry" />
        </mxCell>
        <mxCell id="ZpvsaGd3pKOPAMB-jsLZ-5" value="Topic 4" style="text;html=1;points=[];align=left;verticalAlign=top;spacingTop=-4;fontSize=14;fontFamily=Verdana;fillColor=#008a00;fontColor=#ffffff;strokeColor=#005700;" vertex="1" parent="1">
          <mxGeometry x="985" y="30" width="60" height="20" as="geometry" />
        </mxCell>
        <mxCell id="ZpvsaGd3pKOPAMB-jsLZ-6" value="&lt;font style=&quot;font-size: 22px;&quot;&gt;LOGO&lt;/font&gt;" style="rounded=1;whiteSpace=wrap;html=1;fillColor=#008a00;strokeColor=#005700;fontColor=#ffffff;" vertex="1" parent="1">
          <mxGeometry x="20" y="20" width="120" height="60" as="geometry" />
        </mxCell>
        <mxCell id="ZpvsaGd3pKOPAMB-jsLZ-7" value="&lt;font style=&quot;font-size: 27px;&quot;&gt;Product Image&lt;/font&gt;" style="rounded=1;whiteSpace=wrap;html=1;" vertex="1" parent="1">
          <mxGeometry x="60" y="170" width="230" height="190" as="geometry" />
        </mxCell>
        <mxCell id="ZpvsaGd3pKOPAMB-jsLZ-8" value="&lt;h1 style=&quot;margin-top: 0px;&quot;&gt;&lt;font color=&quot;#ffffff&quot;&gt;ProductName&lt;/font&gt;&lt;/h1&gt;&lt;p&gt;&lt;font color=&quot;#ffffff&quot;&gt;Product description&amp;nbsp;&lt;/font&gt;&lt;/p&gt;" style="text;html=1;whiteSpace=wrap;overflow=hidden;rounded=0;" vertex="1" parent="1">
          <mxGeometry x="350" y="205" width="180" height="120" as="geometry" />
        </mxCell>
        <mxCell id="ZpvsaGd3pKOPAMB-jsLZ-9" value="&lt;font style=&quot;background-color: rgb(0, 0, 0); font-size: 18px;&quot; color=&quot;#ffffff&quot;&gt;99$&lt;/font&gt;" style="text;html=1;align=center;verticalAlign=middle;whiteSpace=wrap;rounded=0;" vertex="1" parent="1">
          <mxGeometry x="470" y="240" width="60" height="30" as="geometry" />
        </mxCell>
        <mxCell id="ZpvsaGd3pKOPAMB-jsLZ-10" value="&lt;font style=&quot;font-size: 27px;&quot;&gt;Product Image&lt;/font&gt;" style="rounded=1;whiteSpace=wrap;html=1;" vertex="1" parent="1">
          <mxGeometry x="590" y="160" width="230" height="190" as="geometry" />
        </mxCell>
        <mxCell id="ZpvsaGd3pKOPAMB-jsLZ-11" value="&lt;h1 style=&quot;margin-top: 0px;&quot;&gt;&lt;font color=&quot;#ffffff&quot;&gt;ProductName&lt;/font&gt;&lt;/h1&gt;&lt;p&gt;&lt;font color=&quot;#ffffff&quot;&gt;Product description&amp;nbsp;&lt;/font&gt;&lt;/p&gt;" style="text;html=1;whiteSpace=wrap;overflow=hidden;rounded=0;" vertex="1" parent="1">
          <mxGeometry x="880" y="195" width="180" height="120" as="geometry" />
        </mxCell>
        <mxCell id="ZpvsaGd3pKOPAMB-jsLZ-12" value="&lt;font style=&quot;background-color: rgb(0, 0, 0); font-size: 18px;&quot; color=&quot;#ffffff&quot;&gt;99$&lt;/font&gt;" style="text;html=1;align=center;verticalAlign=middle;whiteSpace=wrap;rounded=0;" vertex="1" parent="1">
          <mxGeometry x="1000" y="230" width="60" height="30" as="geometry" />
        </mxCell>
        <mxCell id="ZpvsaGd3pKOPAMB-jsLZ-13" value="&lt;font style=&quot;font-size: 27px;&quot;&gt;Product Image&lt;/font&gt;" style="rounded=1;whiteSpace=wrap;html=1;" vertex="1" parent="1">
          <mxGeometry x="60" y="400" width="230" height="190" as="geometry" />
        </mxCell>
        <mxCell id="ZpvsaGd3pKOPAMB-jsLZ-14" value="&lt;h1 style=&quot;margin-top: 0px;&quot;&gt;&lt;font color=&quot;#ffffff&quot;&gt;ProductName&lt;/font&gt;&lt;/h1&gt;&lt;p&gt;&lt;font color=&quot;#ffffff&quot;&gt;Product description&amp;nbsp;&lt;/font&gt;&lt;/p&gt;" style="text;html=1;whiteSpace=wrap;overflow=hidden;rounded=0;" vertex="1" parent="1">
          <mxGeometry x="350" y="435" width="180" height="120" as="geometry" />
        </mxCell>
        <mxCell id="ZpvsaGd3pKOPAMB-jsLZ-15" value="&lt;font style=&quot;background-color: rgb(0, 0, 0); font-size: 18px;&quot; color=&quot;#ffffff&quot;&gt;99$&lt;/font&gt;" style="text;html=1;align=center;verticalAlign=middle;whiteSpace=wrap;rounded=0;" vertex="1" parent="1">
          <mxGeometry x="470" y="470" width="60" height="30" as="geometry" />
        </mxCell>
        <mxCell id="ZpvsaGd3pKOPAMB-jsLZ-16" value="&lt;font style=&quot;font-size: 27px;&quot;&gt;Product Image&lt;/font&gt;" style="rounded=1;whiteSpace=wrap;html=1;" vertex="1" parent="1">
          <mxGeometry x="590" y="390" width="230" height="190" as="geometry" />
        </mxCell>
        <mxCell id="ZpvsaGd3pKOPAMB-jsLZ-17" value="&lt;h1 style=&quot;margin-top: 0px;&quot;&gt;&lt;font color=&quot;#ffffff&quot;&gt;ProductName&lt;/font&gt;&lt;/h1&gt;&lt;p&gt;&lt;font color=&quot;#ffffff&quot;&gt;Product description&amp;nbsp;&lt;/font&gt;&lt;/p&gt;" style="text;html=1;whiteSpace=wrap;overflow=hidden;rounded=0;" vertex="1" parent="1">
          <mxGeometry x="880" y="425" width="180" height="120" as="geometry" />
        </mxCell>
        <mxCell id="ZpvsaGd3pKOPAMB-jsLZ-18" value="&lt;font style=&quot;background-color: rgb(0, 0, 0); font-size: 18px;&quot; color=&quot;#ffffff&quot;&gt;99$&lt;/font&gt;" style="text;html=1;align=center;verticalAlign=middle;whiteSpace=wrap;rounded=0;" vertex="1" parent="1">
          <mxGeometry x="1000" y="460" width="60" height="30" as="geometry" />
        </mxCell>
        <mxCell id="ZpvsaGd3pKOPAMB-jsLZ-19" value="&lt;font style=&quot;font-size: 27px;&quot;&gt;Product Image&lt;/font&gt;" style="rounded=1;whiteSpace=wrap;html=1;" vertex="1" parent="1">
          <mxGeometry x="50" y="610" width="230" height="190" as="geometry" />
        </mxCell>
        <mxCell id="ZpvsaGd3pKOPAMB-jsLZ-20" value="&lt;h1 style=&quot;margin-top: 0px;&quot;&gt;&lt;font color=&quot;#ffffff&quot;&gt;ProductName&lt;/font&gt;&lt;/h1&gt;&lt;p&gt;&lt;font color=&quot;#ffffff&quot;&gt;Product description&amp;nbsp;&lt;/font&gt;&lt;/p&gt;" style="text;html=1;whiteSpace=wrap;overflow=hidden;rounded=0;" vertex="1" parent="1">
          <mxGeometry x="340" y="645" width="180" height="120" as="geometry" />
        </mxCell>
        <mxCell id="ZpvsaGd3pKOPAMB-jsLZ-21" value="&lt;font style=&quot;background-color: rgb(0, 0, 0); font-size: 18px;&quot; color=&quot;#ffffff&quot;&gt;99$&lt;/font&gt;" style="text;html=1;align=center;verticalAlign=middle;whiteSpace=wrap;rounded=0;" vertex="1" parent="1">
          <mxGeometry x="460" y="680" width="60" height="30" as="geometry" />
        </mxCell>
        <mxCell id="ZpvsaGd3pKOPAMB-jsLZ-22" value="&lt;font style=&quot;font-size: 27px;&quot;&gt;Product Image&lt;/font&gt;" style="rounded=1;whiteSpace=wrap;html=1;" vertex="1" parent="1">
          <mxGeometry x="580" y="600" width="230" height="190" as="geometry" />
        </mxCell>
        <mxCell id="ZpvsaGd3pKOPAMB-jsLZ-23" value="&lt;h1 style=&quot;margin-top: 0px;&quot;&gt;&lt;font color=&quot;#ffffff&quot;&gt;ProductName&lt;/font&gt;&lt;/h1&gt;&lt;p&gt;&lt;font color=&quot;#ffffff&quot;&gt;Product description&amp;nbsp;&lt;/font&gt;&lt;/p&gt;" style="text;html=1;whiteSpace=wrap;overflow=hidden;rounded=0;" vertex="1" parent="1">
          <mxGeometry x="870" y="635" width="180" height="120" as="geometry" />
        </mxCell>
        <mxCell id="ZpvsaGd3pKOPAMB-jsLZ-24" value="&lt;font style=&quot;background-color: rgb(0, 0, 0); font-size: 18px;&quot; color=&quot;#ffffff&quot;&gt;99$&lt;/font&gt;" style="text;html=1;align=center;verticalAlign=middle;whiteSpace=wrap;rounded=0;" vertex="1" parent="1">
          <mxGeometry x="990" y="670" width="60" height="30" as="geometry" />
        </mxCell>
      </root>
    </mxGraphModel>
  </diagram>
</mxfile>
